<?xml version="1.0" ?><svg viewBox="0 0 32 32" xmlns="http://www.w3.org/2000/svg"><title/><g data-name="world www web website" id="world_www_web_website"><path d="M16,3A13,13,0,1,0,29,16,13,13,0,0,0,16,3Zm6.69,16.91A24.39,24.39,0,0,0,23,16a23.72,23.72,0,0,0-.32-3.91C25.37,13.08,27,14.58,27,16S25.31,19,22.69,19.91ZM5,16c0-1.47,1.69-2.95,4.31-3.91A24.39,24.39,0,0,0,9,16a23.72,23.72,0,0,0,.32,3.91C6.63,18.92,5,17.42,5,16ZM11.5,6A14.2,14.2,0,0,0,9.82,9.82,14.19,14.19,0,0,0,6,11.49,11,11,0,0,1,11.5,6ZM6,20.5a14.63,14.63,0,0,0,4.32,1.8l.09,0A23.4,23.4,0,0,0,16,23c.6,0,1.19,0,1.76-.06a1,1,0,1,0-.14-2Q16.83,21,16,21a20.92,20.92,0,0,1-4.52-.47A21.33,21.33,0,0,1,11,16c0-6.48,2.64-11,5-11,1,0,2,.76,2.89,2.14a1,1,0,0,0,.84.47,1,1,0,0,0,.54-.15,1,1,0,0,0,.31-1.38.86.86,0,0,0-.07-.1A11,11,0,0,1,26,11.5a14.94,14.94,0,0,0-4.48-1.84l0,0A23.21,23.21,0,0,0,16,9c-.6,0-1.19,0-1.76.06a1,1,0,1,0,.14,2Q15.18,11,16,11a20.92,20.92,0,0,1,4.52.47A21.33,21.33,0,0,1,21,16c0,6.48-2.64,11-5,11-1,0-2-.76-2.89-2.14a1,1,0,1,0-1.69,1.06.86.86,0,0,0,.07.1A11,11,0,0,1,6,20.5ZM20.5,26a14.2,14.2,0,0,0,1.68-3.85A14.19,14.19,0,0,0,26,20.51,11,11,0,0,1,20.5,26Z"/></g></svg>